<svg xmlns="http://www.w3.org/2000/svg" width="56.532" height="34.066" viewBox="0 0 56.532 34.066">
  <g id="Group_7253" data-name="Group 7253" transform="translate(-0.001 0)">
    <path id="Path_35895" data-name="Path 35895" d="M-26.721-407.4s3.474-8.089-3.853-10.69c0,0,7.811-2.656,13.235,3.283,0,0-7.6,3.871-9.382,7.407" transform="translate(30.575 418.682)" fill="#69b23b"/>
    <path id="Path_35896" data-name="Path 35896" d="M112.544-384.927H101.061V-399.4a18.622,18.622,0,0,1,11.483,14.477" transform="translate(-74.581 403.281)" fill="#69b23b"/>
    <path id="Path_35897" data-name="Path 35897" d="M47.883-390.167v2.963a12.748,12.748,0,0,1-12.748,12.748c-.215,0-.43-.005-.642-.016v-30.335a18.529,18.529,0,0,1,6.023-1.157v15.8Z" transform="translate(-21.403 408.522)" fill="#ffc31b"/>
    <path id="Path_35898" data-name="Path 35898" d="M71.8-404.665v14.477H64.435v-15.8c.153,0,.307-.005.461-.005a18.531,18.531,0,0,1,6.906,1.325" transform="translate(-45.323 408.543)" fill="#25a080"/>
    <path id="Path_35899" data-name="Path 35899" d="M8.794-400.213v30.335a12.686,12.686,0,0,1-6.471-2.15V-396.12a18.585,18.585,0,0,1,6.471-4.093" transform="translate(4.295 403.928)" fill="#e31160"/>
    <path id="Path_35900" data-name="Path 35900" d="M-20.087-379.864v24.092a12.732,12.732,0,0,1-5.642-10.581c0-.067,0-.1,0-.167a18.544,18.544,0,0,1,5.642-13.344" transform="translate(26.705 387.673)" fill="#722f87"/>
    <path id="Path_35901" data-name="Path 35901" d="M19.821-379.664a2.821,2.821,0,0,1-2.82,2.82,2.82,2.82,0,0,1-2.82-2.82,2.82,2.82,0,0,1,2.82-2.82,2.82,2.82,0,0,1,2.82,2.82" transform="translate(-5.177 389.766)" fill="#fff"/>
    <path id="Path_35902" data-name="Path 35902" d="M24.1-373.95a1.381,1.381,0,0,1-1.382,1.381,1.381,1.381,0,0,1-1.381-1.381,1.381,1.381,0,0,1,1.381-1.381A1.381,1.381,0,0,1,24.1-373.95" transform="translate(-10.891 384.051)" fill="#e31160"/>
    <rect id="Rectangle_5029" data-name="Rectangle 5029" width="2.237" height="12.258" transform="translate(29.552 21.225)" fill="#722f87"/>
    <rect id="Rectangle_5030" data-name="Rectangle 5030" width="2.237" height="12.258" transform="translate(34.353 21.225)" fill="#722f87"/>
    <path id="Path_35903" data-name="Path 35903" d="M164.067-313.165H166.3v10.384h5.038v1.873h-7.274Z" transform="translate(-124.914 334.39)" fill="#722f87"/>
    <path id="Path_35904" data-name="Path 35904" d="M197.665-311.292h-3.491v-1.873h9.256v1.873H199.9v10.384h-2.237Z" transform="translate(-148.964 334.391)" fill="#722f87"/>
    <path id="Path_35905" data-name="Path 35905" d="M242.6-323.207a.968.968,0,0,1-.987.974.976.976,0,0,1-.992-.974.974.974,0,0,1,.992-.963.965.965,0,0,1,.987.963m-1.732,0a.746.746,0,0,0,.752.769.737.737,0,0,0,.734-.763.745.745,0,0,0-.74-.775.748.748,0,0,0-.746.769m.593.5h-.223v-.963a1.943,1.943,0,0,1,.37-.03.6.6,0,0,1,.335.07.267.267,0,0,1,.094.211.246.246,0,0,1-.2.223v.012a.284.284,0,0,1,.176.235.733.733,0,0,0,.07.241h-.241a.837.837,0,0,1-.076-.235c-.017-.106-.076-.153-.2-.153h-.106Zm.006-.546h.106c.124,0,.223-.041.223-.141s-.065-.147-.206-.147a.566.566,0,0,0-.123.011Z" transform="translate(-186.072 343.182)" fill="#722f87"/>
  </g>
</svg>
